<svg width="166" height="32" viewBox="0 0 166 32" fill="none" xmlns="http://www.w3.org/2000/svg">
<path d="M20.6494 31.9988C18.9783 32.0054 17.3356 31.549 15.8901 30.6766C14.377 29.7594 13.1444 28.4151 12.3353 26.7994C11.4451 25.0974 11 23.0332 11 20.6068V19.8898C11 17.4688 11.4451 15.4074 12.3353 13.7054C13.1218 12.1222 14.3158 10.7976 15.7839 9.87943C17.252 8.9613 18.9365 8.48577 20.6494 8.50593C21.751 8.47668 22.8497 8.63586 23.9016 8.97713C24.6765 9.23302 25.3993 9.63586 26.0334 10.1653C26.5356 10.5896 26.959 11.1058 27.2827 11.6885H28.0636V0H33.4924V31.3712H28.1436V28.6821H27.3628C26.7878 29.6094 26.0191 30.3897 25.1139 30.965C24.0897 31.6555 22.6015 32.0001 20.6494 31.9988ZM22.2853 27.0695C23.9498 27.0695 25.343 26.5089 26.4648 25.3878C27.5866 24.2667 28.1462 22.631 28.1436 20.4808V20.032C28.1436 17.8818 27.5912 16.2462 26.4863 15.125C25.3814 14.0039 23.981 13.4433 22.2853 13.4433C20.6208 13.4433 19.2282 14.0039 18.1077 15.125C16.9872 16.2462 16.4269 17.8818 16.4269 20.032V20.4808C16.4269 22.6324 16.9872 24.268 18.1077 25.3878C19.2282 26.5076 20.6208 27.0681 22.2853 27.0695Z" fill="#219EBC"/>
<path d="M42.6596 9.1416H37.2327V31.3712H42.6596V9.1416Z" fill="#219EBC"/>
<path d="M55.2821 32.0002C52.497 32.0002 50.2137 31.3726 48.4321 30.1174C46.6504 28.8623 45.5735 27.0696 45.2013 24.7393L50.1987 23.3947C50.3992 24.44 50.7362 25.2619 51.2099 25.8604C51.6722 26.45 52.2844 26.8926 52.9766 27.1379C53.7194 27.3967 54.4988 27.5237 55.2821 27.5137C56.5451 27.5137 57.4782 27.2842 58.0815 26.8191C58.6847 26.354 58.9853 25.7812 58.9853 25.0947C58.994 24.773 58.9185 24.4549 58.7669 24.1745C58.6152 23.894 58.3931 23.6617 58.1244 23.5024C57.5505 23.1314 56.6317 22.8254 55.368 22.5844L54.1616 22.361C52.7595 22.0908 51.3864 21.6779 50.0621 21.1281C48.9137 20.6704 47.8923 19.9237 47.089 18.9549C46.3407 18.0288 45.9672 16.8332 45.9685 15.3681C45.9685 13.1584 46.7441 11.4659 48.2954 10.2906C49.8467 9.1153 51.8854 8.52495 54.4114 8.51953C56.7956 8.51953 58.7771 9.07266 60.3557 10.1789C61.9343 11.2851 62.9709 12.7305 63.4654 14.5151L58.425 16.1399C58.1947 15.0066 57.7281 14.2003 57.0253 13.721C56.2433 13.2207 55.3368 12.9713 54.4193 13.004C53.3872 13.004 52.5979 13.1909 52.0513 13.5646C51.7957 13.724 51.5852 13.951 51.4412 14.2225C51.2972 14.4939 51.2248 14.8002 51.2314 15.1102C51.2159 15.4331 51.2887 15.7539 51.4414 16.0354C51.5942 16.3169 51.8205 16.5475 52.0943 16.7005C52.8205 17.098 53.6069 17.3632 54.4193 17.4845L55.6257 17.7099C57.1132 17.9755 58.5761 18.373 59.9984 18.8981C61.1894 19.3107 62.2578 20.0361 63.1004 21.0042C63.8591 21.9168 64.2391 23.149 64.2404 24.7007C64.2404 27.0323 63.4296 28.8325 61.8081 30.1012C60.1865 31.3699 58.0112 32.0029 55.2821 32.0002Z" fill="#219EBC"/>
<path d="M74.4501 31.3698C73.042 31.3698 71.9006 30.9142 71.0261 30.0029C70.1515 29.0917 69.7136 27.8731 69.7123 26.3471V13.8014H64.3693V9.13009H69.7123V2.22461H75.1392V9.13009H80.9956V13.8014H75.1392V25.3641C75.1392 26.2604 75.5414 26.7086 76.3456 26.7086H80.4802V31.3799L74.4501 31.3698Z" fill="#219EBC"/>
<path d="M89.052 9.1416H83.6251V31.3712H89.052V9.1416Z" fill="#219EBC"/>
<path d="M92.8001 31.3704V9.14084H98.1411V12.0533H98.922C99.2682 11.2775 99.9143 10.5382 100.86 9.83545C101.807 9.13271 103.243 8.78202 105.169 8.78338C106.704 8.74782 108.218 9.15859 109.542 9.9695C110.786 10.7558 111.793 11.8894 112.448 13.2415C113.137 14.6307 113.482 16.2515 113.483 18.1037V31.3704H108.048V18.5526C108.048 16.879 107.654 15.6239 106.865 14.7871C106.077 13.9503 104.949 13.5326 103.482 13.5339C101.816 13.5339 100.524 14.1087 99.6052 15.2583C98.6864 16.4078 98.227 18.0137 98.227 20.0759V31.3704H92.8001Z" fill="#219EBC"/>
<path d="M127.089 31.9976C125.139 32.0255 123.21 31.5643 121.467 30.6531C119.807 29.7774 118.424 28.4239 117.483 26.7535C116.507 25.0515 116.019 22.99 116.019 20.5691V19.9415C116.019 17.5205 116.507 15.459 117.483 13.757C118.424 12.0867 119.807 10.7331 121.467 9.85744C123.21 8.94626 125.139 8.48508 127.089 8.51291C129.127 8.51291 130.879 8.88661 132.344 9.63402C133.755 10.3343 134.976 11.389 135.897 12.7029C136.807 14.0146 137.419 15.5245 137.685 17.1184L132.43 18.2842C132.328 17.431 132.063 16.6078 131.649 15.8632C131.244 15.1433 130.655 14.5543 129.947 14.1612C129.216 13.7428 128.305 13.5336 127.214 13.5336C126.186 13.5173 125.171 13.7716 124.263 14.2729C123.378 14.7734 122.658 15.5381 122.195 16.4684C121.693 17.4393 121.442 18.6267 121.442 20.0308V20.4797C121.442 21.8852 121.693 23.0726 122.195 24.0421C122.658 24.9724 123.378 25.7371 124.263 26.2376C125.171 26.7396 126.186 26.9946 127.214 26.979C128.85 26.979 130.092 26.5382 130.941 25.6568C131.789 24.7753 132.328 23.6169 132.555 22.1817L137.81 23.4815C137.449 25.04 136.798 26.5098 135.893 27.8076C134.973 29.1221 133.752 30.1769 132.341 30.8765C130.873 31.6239 129.122 31.9976 127.089 31.9976Z" fill="#219EBC"/>
<path d="M147.512 31.3698C146.104 31.3698 144.963 30.9142 144.088 30.0029C143.214 29.0917 142.776 27.8731 142.775 26.3471V13.8014H137.434V9.13009H142.775V2.22461H148.202V9.13009H154.058V13.8014H148.202V25.3641C148.202 26.2604 148.604 26.7086 149.408 26.7086H153.545V31.3799L147.512 31.3698Z" fill="#219EBC"/>
</svg>
